<svg xmlns="http://www.w3.org/2000/svg" viewBox="0 0 37.07 29.23"><defs><style>.cls-1{fill:rgba(170, 197, 181, 0.8);}.cls-2{fill:rgba(170, 197, 181, 0.8);}</style></defs><g id="레이어_2" data-name="레이어 2"><g id="레이어_1-2" data-name="레이어 1"><path class="cls-1" d="M19,0A12.79,12.79,0,0,1,30,6.65a6.12,6.12,0,0,0,2.7,2.58,8.12,8.12,0,0,1,4.06,9.38,8.37,8.37,0,0,1-8.39,6.23c-1.25,0-1.75-.29-1.71-1.64,0-1.2.25-1.83,1.63-1.73A4.71,4.71,0,0,0,33.55,18a4.82,4.82,0,0,0-3.29-6.23,3.49,3.49,0,0,1-2.53-2.27,9.34,9.34,0,0,0-9.17-6.2A9.46,9.46,0,0,0,9.37,9.47,3,3,0,0,1,7.1,11.66c-2.71.66-4,2.86-3.65,5.59.28,2.47,2.09,4.1,4.89,4.2,1.28.05,2.13.05,2.14,1.79,0,2-1.2,1.58-2.28,1.56a8.42,8.42,0,0,1-8-6.45A8.23,8.23,0,0,1,4.46,9.23,6,6,0,0,0,7.13,6.62,13,13,0,0,1,19,0Z"/><path class="cls-2" d="M18.57,11.93c1.51,1.9,2.86,3.65,4.25,5.36.81,1,.87,1.72-.66,1.54-1.73-.2-2,.57-1.95,2.07.12,2,0,3.93,0,5.9,0,1.25.24,2.44-1.76,2.43s-1.57-1.43-1.59-2.54c0-2-.09-3.94,0-5.9.07-1.4-.15-2.16-1.82-1.95s-1.66-.5-.74-1.63C15.74,15.52,17.09,13.79,18.57,11.93Z"/></g></g></svg>