<svg xmlns="http://www.w3.org/2000/svg" viewBox="0 0 187.77 162.94"><defs><style>.cls-1{fill:#bddcd5;}</style></defs><g id="레이어_2" data-name="레이어 2"><g id="레이어_1-2" data-name="레이어 1"><path class="cls-1" d="M134,162.57a27,27,0,0,1-2.7,0c-1.37-.13-2.74-.44-4.1-.64-1.62-.23-3.19-.65-4.76-1-1.37-.33-2.74-.73-4.11-1s-2.81-.82-4.26-1.1-2.7-.62-4-1c-1.64-.46-3.35-.64-5-1a38,38,0,0,0-9.45-.75c-.52,0-.87-.48-1.4-.35-2.21.51-4.48.17-6.7.41a64.18,64.18,0,0,0-6.86,1.28c-1.64.36-3.22,1-4.87,1.31-1.94.33-3.72,1.19-5.66,1.51-1.17.2-2.32.62-3.5.89-1.82.4-3.63.82-5.47,1.15-1.68.3-3.37.14-5,.39a6.21,6.21,0,0,1-2.24.25c-2.1-.47-4.26-.34-6.37-1a28.47,28.47,0,0,1-8.37-4,20.61,20.61,0,0,1-4.46-4.2A44.93,44.93,0,0,1,31.3,149a26.52,26.52,0,0,1-2.57-6.21,43,43,0,0,1-.87-4.47,19,19,0,0,1-.22-4.86,26,26,0,0,1,1.79-7.77,26.19,26.19,0,0,1,4.28-7.12c1.1-1.26,2.37-2.33,3.52-3.53,1.52-1.61,3.14-3.13,4.8-4.59,2.8-2.49,5.34-5.25,8.15-7.72,2-1.81,3.94-3.77,5.92-5.64s4.18-3.89,6.25-5.86a98.14,98.14,0,0,1,9.77-8.69A34.26,34.26,0,0,1,78.4,79a31.07,31.07,0,0,1,6-2A44,44,0,0,1,89.84,76a43,43,0,0,1,5.07-.27,45.66,45.66,0,0,1,5.46.64c1.47.22,2.9.6,4.35.89a25.65,25.65,0,0,1,3.43,1.25,34.34,34.34,0,0,1,6.53,3.4,37.9,37.9,0,0,1,5.65,4.53c1.63,1.52,3.28,3,4.89,4.53,1.34,1.27,2.57,2.65,3.95,3.87,2.57,2.26,4.86,4.82,7.45,7,2.26,1.94,4.31,4.11,6.5,6.12,1.79,1.63,3.63,3.2,5.29,5,1.25,1.33,2.62,2.55,4,3.81a23.66,23.66,0,0,1,5.65,8,22.8,22.8,0,0,1,1.49,4.61,24.15,24.15,0,0,1,.66,7.07,33.59,33.59,0,0,1-1.8,8.35,35.58,35.58,0,0,1-3,6,15.21,15.21,0,0,1-1.3,1.87,27.2,27.2,0,0,1-2.48,2.86,25.73,25.73,0,0,1-7.62,5.06c-1.45.59-2.89,1.14-4.38,1.59A19.25,19.25,0,0,1,134,162.57Z"/><path class="cls-1" d="M87.85,30.8a30.79,30.79,0,0,1,0,3.23,56.84,56.84,0,0,1-1.12,6.85c-.37,1.53-.9,3-1.35,4.52a23.71,23.71,0,0,1-2,4.47,26.32,26.32,0,0,1-5.36,7,22.46,22.46,0,0,1-7,4.28,16,16,0,0,1-7.85.72,16.29,16.29,0,0,1-7.13-2.92,23.24,23.24,0,0,1-5.35-5.12,31.9,31.9,0,0,1-2.84-4.44,44.72,44.72,0,0,1-3.13-7.94c-.25-.79-.28-1.77-.54-2.56-.48-1.45-.15-3-.59-4.41-.33-1.08,0-2.34-.11-3.51a30.3,30.3,0,0,1,.49-6.32A35.66,35.66,0,0,1,45.74,17a34.46,34.46,0,0,1,3.71-7.65,20.27,20.27,0,0,1,7.55-7,19.13,19.13,0,0,1,5.24-2,23.68,23.68,0,0,1,5-.25,11.54,11.54,0,0,1,4.5,1.06A25.18,25.18,0,0,1,76.43,3.6a23.11,23.11,0,0,1,2.83,2.5,25,25,0,0,1,2.89,3.73,38,38,0,0,1,2,3.65,28,28,0,0,1,1.91,4.89c.45,1.46.61,3,1.05,4.47.34,1.15.11,2.38.43,3.46C88,27.93,87.67,29.54,87.85,30.8Z"/><path class="cls-1" d="M100,31.49a31.32,31.32,0,0,1,0-3.41,48.35,48.35,0,0,1,1.13-7c.33-1.19.63-2.4.91-3.6a13.29,13.29,0,0,1,.82-2.29A31.74,31.74,0,0,1,107,7.81a21.33,21.33,0,0,1,6.9-5.76A21.79,21.79,0,0,1,118.82.28,20.56,20.56,0,0,1,123,0a13.89,13.89,0,0,1,6.64,1.7,21.3,21.3,0,0,1,5.92,4.23,28.16,28.16,0,0,1,3.95,5.34A26.22,26.22,0,0,1,141.36,15c.6,1.52,1,3.1,1.54,4.65s.58,3.34,1.09,5a.52.52,0,0,1,0,.18c.1,3.07.8,6.15.31,9.2-.24,1.45-.25,2.93-.58,4.4-.41,1.84-.8,3.69-1.37,5.49a32.07,32.07,0,0,1-3.31,7.24,24.9,24.9,0,0,1-6.3,7.11,18.66,18.66,0,0,1-6.95,3.3,15.92,15.92,0,0,1-7.7-.07,19.32,19.32,0,0,1-7.21-3.79,24.84,24.84,0,0,1-4.09-4.24,34.74,34.74,0,0,1-3.17-5.32A31.87,31.87,0,0,1,101.39,42a38,38,0,0,1-1.15-5.65C100,34.59,100,32.83,100,31.49Z"/><path class="cls-1" d="M38.54,74.16a31.64,31.64,0,0,1-.92,8.35,21.48,21.48,0,0,1-3.28,7.89,14.4,14.4,0,0,1-7.72,5.83,15.32,15.32,0,0,1-3.95.8,16.13,16.13,0,0,1-8-2.25,21.82,21.82,0,0,1-7.12-6.66,29.13,29.13,0,0,1-4.2-8c-.28-.87-.73-1.68-1-2.55a23.68,23.68,0,0,1-.95-3.46c-.21-1.27-.62-2.5-.72-3.8A15.38,15.38,0,0,0,.41,68.4a19.83,19.83,0,0,1-.29-6.14,33.59,33.59,0,0,1,1.47-8,27.75,27.75,0,0,1,2.22-5.05A15.41,15.41,0,0,1,9,44.08a25.94,25.94,0,0,1,4.22-1.93A2.27,2.27,0,0,1,13.9,42c1,0,2,0,3.07,0A12.7,12.7,0,0,1,23.54,44,26.16,26.16,0,0,1,31,50.78a25.48,25.48,0,0,1,3.22,5.16,32.35,32.35,0,0,1,2.33,5.69A60.45,60.45,0,0,1,38,68.27,25,25,0,0,1,38.54,74.16Z"/><path class="cls-1" d="M187.73,64.32a20.31,20.31,0,0,1,0,2.84A44.63,44.63,0,0,1,186.54,74c-.47,1.46-.72,3-1.26,4.42a42.83,42.83,0,0,1-2.9,6.58,28.89,28.89,0,0,1-5.93,7.32,20.66,20.66,0,0,1-5.9,3.5,15.72,15.72,0,0,1-7.27.81,12.62,12.62,0,0,1-4.15-1.38A14.68,14.68,0,0,1,154,90.94a19.1,19.1,0,0,1-3.14-6A34.08,34.08,0,0,1,149.29,72a43.09,43.09,0,0,1,.74-5.39c.35-1.9.83-3.77,1.3-5.63a19.77,19.77,0,0,1,1.25-2.84,38.46,38.46,0,0,1,3.09-5.85,30,30,0,0,1,6.6-7.08,19.83,19.83,0,0,1,5.23-2.75,15,15,0,0,1,5.09-.48,11.39,11.39,0,0,1,5.87,1.82,14.6,14.6,0,0,1,4.94,4.72,17.88,17.88,0,0,1,2.71,5.71c.27,1.12.69,2.21.92,3.35A25,25,0,0,1,187.73,64.32Z"/></g></g></svg>