<svg xmlns="http://www.w3.org/2000/svg" viewBox="0 0 37.09 35.53"><defs><style>.cls-1{fill:#bedcd6;}.cls-2{fill:#beddd6;}</style></defs><g id="레이어_2" data-name="레이어 2"><g id="레이어_1-2" data-name="레이어 1"><path class="cls-1" d="M21,16.2c2.1-.24,3.82,1,5.59,1.91,2,1.07,3.92,2.23,5.86,3.37A5.17,5.17,0,0,1,35,27.19c-.47,1.95-1.53,4-4.57,4.25a9.37,9.37,0,0,1-1.62.25,18.3,18.3,0,0,0-11.43,2.88,5.19,5.19,0,0,1-7-1,5.21,5.21,0,0,1-.76-6.25c1.65-2.72,3.33-5.43,5.14-8A6.81,6.81,0,0,1,21,16.2Z"/><path class="cls-2" d="M15.89,10a7.82,7.82,0,0,1,0,1.19c-.3,1.85-1.14,3.38-3.05,3.9a3.87,3.87,0,0,1-4.17-1.67A7.87,7.87,0,0,1,6.87,6.48c.49-2.1,1.79-3.61,3.42-3.72a4.58,4.58,0,0,1,4.2,2.43A7.21,7.21,0,0,1,15.89,10Z"/><path class="cls-2" d="M17.87,4.89a4.8,4.8,0,0,1,.56-2.68A3.65,3.65,0,0,1,24.25,1a8,8,0,0,1,2,9.4,3.62,3.62,0,0,1-5.75,1A7.74,7.74,0,0,1,17.87,4.89Z"/><path class="cls-2" d="M37.06,11.56a6.18,6.18,0,0,1-1,3.93,3.08,3.08,0,0,1-5,.46c-1.84-2-2-6.37-.44-8.62A3.13,3.13,0,0,1,36,7.51,6.25,6.25,0,0,1,37.06,11.56Z"/><path class="cls-2" d="M8.31,20.49a3.1,3.1,0,0,1-1.9,3.4c-1.48.66-2.73,0-3.75-1A7.72,7.72,0,0,1,0,16.58c.09-1.13.32-2.22,1.49-2.74A3.26,3.26,0,0,1,5,14.12C7,15.68,8.42,17.65,8.31,20.49Z"/></g></g></svg>