<svg xmlns="http://www.w3.org/2000/svg" viewBox="0 0 139.43 73.05"><defs><style>.cls-1{fill:#0e0f0f;}.cls-2{fill:#0d0e0e;}.cls-3{isolation:isolate;}.cls-4{fill:#53964c;}</style></defs><g id="레이어_2" data-name="레이어 2"><g id="레이어_1-2" data-name="레이어 1"><g id="레이어_2-2" data-name="레이어 2"><g id="레이어_1-2-2" data-name="레이어 1-2"><path class="cls-1" d="M126.13,3.18c-1.93,3.93-4.15,8.54-6.51,13.09a1.72,1.72,0,0,1-2.35.63.41.41,0,0,1-.11-.07c-1.22-.72-1.86-1.72-1.27-3,1.85-4.14,3.74-8.26,5.72-12.34A2.25,2.25,0,0,1,124.25.06C125.4.37,126.13,1.15,126.13,3.18Z"/><path class="cls-1" d="M128.51,22.12c-1.76,0-2.53-.46-3-1.29a1.79,1.79,0,0,1,.52-2.49,1.92,1.92,0,0,1,.35-.18c3.29-1.64,6.65-3.18,10.05-4.6a2.07,2.07,0,0,1,2.69,1.18h0a1.74,1.74,0,0,1-.47,2.42h0C135.13,19,131.5,20.67,128.51,22.12Z"/><path class="cls-2" d="M113.05,11c.28,2.07.08,3.27-1.4,3.68a2.33,2.33,0,0,1-3-1.38,2.36,2.36,0,0,1-.12-.54c-.78-3.07-1.46-6.17-2.09-9.28A2.12,2.12,0,0,1,107.9.82a2,2,0,0,1,.35-.07A2.17,2.17,0,0,1,111,2.15a2.81,2.81,0,0,1,.08.31C111.82,5.5,112.51,8.6,113.05,11Z"/><g class="cls-3"><path class="cls-4" d="M17.43,38.77a14.12,14.12,0,0,1,3.06.29,3.18,3.18,0,0,1,2,1.5,2.36,2.36,0,0,1,.22,2.26,2.7,2.7,0,0,1-2.19,1.37,16.84,16.84,0,0,1-2.41.19c-.91,0-2.1,0-3.59-.06,0,.47,0,1,0,1.48v1.42c0,.43,0,.79,0,1.1s0,.5,0,.58v4.67c0,.23,0,.53,0,.9s.06.66.09.86c.23.22.55.55,1,1s.73.78,1,1.06l.89,1c.31.36.62.77,1,1.21a8,8,0,0,1,.61.75c.17.25.33.47.48.67q.82,1.13,1.71,2.46a8.44,8.44,0,0,1,1.18,2.67,3.36,3.36,0,0,1,0,1.27,1.86,1.86,0,0,1-.63,1.15,2.56,2.56,0,0,1-1.67.62,3.8,3.8,0,0,1-1.92-.52,6.86,6.86,0,0,1-1.49-1.1,19.83,19.83,0,0,1-1.56-1.76c-.48-.61-.95-1.21-1.42-1.79-.32-.44-.66-.88-1-1.31s-.71-.86-1.09-1.27q-.09-.18-.18-.21s0,0,0,0,0,0,0,0a5.94,5.94,0,0,1-.5.65,5.11,5.11,0,0,0-.51.64,8.85,8.85,0,0,0-.63.77l-.55.78L8,65.9a11.07,11.07,0,0,1-1.4,1.6,5.34,5.34,0,0,1-3.54,1.8,2.89,2.89,0,0,1-.84-.13A1.83,1.83,0,0,1,.88,68a2.51,2.51,0,0,1-.24-1.54A4.72,4.72,0,0,1,1.05,65a10.85,10.85,0,0,1,.79-1.33c.29-.42.6-.84.92-1.26l.59-.75a6.51,6.51,0,0,0,.5-.75c.27-.41.62-.91,1.08-1.48s.9-1.12,1.35-1.66l1.25-1.49c.38-.44.64-.76.79-1v-11H5.65l-2.3,0a4.45,4.45,0,0,1-.94-.11A2.63,2.63,0,0,1,.18,42.4a2.23,2.23,0,0,1,.35-2.34,3.25,3.25,0,0,1,2.1-1.25c.14,0,.29-.05.44-.06l.48,0a2.91,2.91,0,0,1,.61,0ZM32.18,66.88c0,.33-.1.66-.13,1a4,4,0,0,1-.22,1,2.21,2.21,0,0,0-.13.29,2.21,2.21,0,0,1-.13.29,2.54,2.54,0,0,1-.79.92,3,3,0,0,1-2.23.29,2.3,2.3,0,0,1-1.14-.5,2,2,0,0,1-.59-.86,7.93,7.93,0,0,1-.31-1,4.3,4.3,0,0,1-.11-.87V40.56a7.55,7.55,0,0,1,.09-1.16,7,7,0,0,1,.26-1.09,1.94,1.94,0,0,1,.49-.79,2,2,0,0,1,1-.56,5.8,5.8,0,0,1,1.14-.11,2.5,2.5,0,0,1,1.38.4,2.17,2.17,0,0,1,.9,1.1,5.11,5.11,0,0,1,.44,1.84c0,.64,0,1.28.08,1.92v.2c.06,2.15.08,4.34,0,6.59s0,4.38,0,6.38v10.1q0,.38,0,.75A4.71,4.71,0,0,1,32.18,66.88Z"/><path class="cls-4" d="M53.42,69.34a2.58,2.58,0,0,1-.44.6,2.45,2.45,0,0,1-.66.48,1.2,1.2,0,0,1-.63.33,3.25,3.25,0,0,1-.77.09,3.8,3.8,0,0,1-1.22,0,1.62,1.62,0,0,1-1-.71,1.31,1.31,0,0,1-.35-.63,4.09,4.09,0,0,0-.17-.62,3.05,3.05,0,0,1-.13-.67c0-.28,0-.5,0-.67V60H38.71c-.7-.08-1.32-.16-1.84-.25a2.44,2.44,0,0,1-1.49-1.08,3.13,3.13,0,0,1-.35-.71,2.19,2.19,0,0,1-.13-.75,4.79,4.79,0,0,1,.24-.73,1.37,1.37,0,0,1,.5-.6,1.28,1.28,0,0,1,.79-.5,4.44,4.44,0,0,1,.48-.13,3.47,3.47,0,0,0,.48-.13,1.64,1.64,0,0,0,.4,0,2.23,2.23,0,0,1,.39,0H56.75V46.61a1.19,1.19,0,0,1,0-.54,2.16,2.16,0,0,0,0-.46,2.62,2.62,0,0,1-.07-.73,1.48,1.48,0,0,0-.11-.69,1,1,0,0,0-.35-.42,1.71,1.71,0,0,0-.61-.08,7.84,7.84,0,0,0-1.38,0c-.48,0-1,0-1.47,0H41.33a7.68,7.68,0,0,1-1.75-.25,2.53,2.53,0,0,1-1.4-1,1.49,1.49,0,0,1-.17-.31,1.14,1.14,0,0,1-.09-.48,1.12,1.12,0,0,1-.09-.44v-.48a6.18,6.18,0,0,1,.22-.85,1.79,1.79,0,0,1,.48-.73,2.77,2.77,0,0,1,.57-.34l.66-.25a4,4,0,0,1,1.4-.25,3.34,3.34,0,0,1,.7-.08H54.12a7.65,7.65,0,0,0,1.36,0c.46,0,.92,0,1.35,0h.73a4.09,4.09,0,0,1,.76.08,5.43,5.43,0,0,1,1.58.25,3.79,3.79,0,0,1,.72.23,2.66,2.66,0,0,1,.59.36,2.49,2.49,0,0,1,.88,1.25,2.61,2.61,0,0,1,.22.83,2.23,2.23,0,0,1,.13.44,2.25,2.25,0,0,1,0,.44,7.14,7.14,0,0,1,.09,1.08v4.42a2.56,2.56,0,0,1,0,.86c0,.34,0,.64,0,.89V55h1.8c.26.06.5.1.72.13a6.1,6.1,0,0,1,.68.12A2.4,2.4,0,0,1,66.9,56a1.85,1.85,0,0,1,.53,1.42,3.25,3.25,0,0,1-.11.9,1.62,1.62,0,0,1-.59.73,1.87,1.87,0,0,1-.68.39q-.42.15-.9.27a8.57,8.57,0,0,1-1.51.19c-.65,0-1.17.06-1.55.06H53.94v6.26a7.14,7.14,0,0,0-.08,1,2,2,0,0,1-.09.67,2.78,2.78,0,0,1-.11.75Q53.56,69,53.42,69.34Z"/></g><g class="cls-3"><path class="cls-4" d="M89.44,49.71a17.17,17.17,0,0,1-2.06.07l-3.45,0c-1.23,0-2.39,0-3.49,0H78.21c-.79,0-1.56,0-2.33,0a17,17,0,0,1-2.2-.19A7.33,7.33,0,0,1,71.77,49a3.2,3.2,0,0,1-1.37-1.12,5,5,0,0,1-.83-2.07,23.85,23.85,0,0,1-.32-2.41,16.36,16.36,0,0,1-.07-2c0-.58,0-.9,0-.94V37.45c0-.58,0-1.23.07-1.94s0-1.49,0-2.22,0-1.38,0-2V28.63c0-.33,0-.7.07-1.09a9.85,9.85,0,0,1,.2-1.19,2.62,2.62,0,0,1,.39-1,4.44,4.44,0,0,1,1.22-1.28,4.52,4.52,0,0,1,1.61-.6,7.66,7.66,0,0,1,1-.09c.44,0,.85-.05,1.25-.1s1-.06,1.51-.06H91.42a22,22,0,0,1,3,.22,7.57,7.57,0,0,1,2.86,1,3.28,3.28,0,0,1,1.38,1.44,6.79,6.79,0,0,1,.52,1.88,10.53,10.53,0,0,1,.07,2c0,.69-.07,1.32-.07,1.91s0,1.32,0,2,0,1.3,0,2v3.44a2.59,2.59,0,0,0,0,.69q0,.38,0,.75a6.09,6.09,0,0,0-.06,1.59c0,.53.06,1.08.06,1.66a11,11,0,0,1-.1,1.47,6.56,6.56,0,0,1-.39,1.57,5.18,5.18,0,0,1-.79,1.4,2.58,2.58,0,0,1-1.28.88,9.07,9.07,0,0,1-3.58.66C91.84,49.72,90.63,49.71,89.44,49.71ZM73.15,63.41a6.64,6.64,0,0,1,1.74-4.69,11.94,11.94,0,0,1,4.7-3,29.18,29.18,0,0,1,7-1.53,79.36,79.36,0,0,1,8.54-.44c3,0,5.87.11,8.54.31a27.8,27.8,0,0,1,7,1.35,11.38,11.38,0,0,1,4.69,2.91A7.15,7.15,0,0,1,117,63.41a7.07,7.07,0,0,1-1.74,5,11.38,11.38,0,0,1-4.69,2.91,29.14,29.14,0,0,1-7,1.38c-2.67.22-5.52.34-8.54.34s-5.86-.12-8.54-.34a29,29,0,0,1-7-1.38,11.42,11.42,0,0,1-4.7-2.91A7.07,7.07,0,0,1,73.15,63.41ZM81,31.07H80a2.67,2.67,0,0,0-.88.13,2.07,2.07,0,0,0-1.51.75,1.52,1.52,0,0,0-.3.94q0,.61,0,.75v2.62a6.23,6.23,0,0,0-.07.91v1.47c0,.5,0,.92,0,1.25a5.65,5.65,0,0,0,.17,1,2,2,0,0,0,.46.88,2.35,2.35,0,0,0,1.7.72q1.19.09,2.37.09H82c1.13,0,2.08,0,2.82,0s1.71,0,2.89,0l1.09,0a3.54,3.54,0,0,0,1.08-.09,1.05,1.05,0,0,0,.72-.31,2.33,2.33,0,0,0,.33-.63,3.18,3.18,0,0,0,.13-.81,12.85,12.85,0,0,0,.26-2.69c0-.67,0-1.34,0-2a19.26,19.26,0,0,0,0-2,5.55,5.55,0,0,1,0-1,3.12,3.12,0,0,0-.1-1,1.08,1.08,0,0,0-.85-.78,7.91,7.91,0,0,0-1.18-.09Zm27.13,32.34A1.88,1.88,0,0,0,107,61.73a10.08,10.08,0,0,0-3-.94,33.2,33.2,0,0,0-4.21-.41c-1.55-.06-3.09-.09-4.63-.09s-3,0-4.56.09a30.88,30.88,0,0,0-4.07.41,9.26,9.26,0,0,0-2.93.94,1.88,1.88,0,0,0-1.11,1.68A1.82,1.82,0,0,0,83.53,65a9.26,9.26,0,0,0,2.93.94,36.52,36.52,0,0,0,4.07.44q2.27.12,4.56.12h4.63a31.47,31.47,0,0,0,4.21-.25,8.66,8.66,0,0,0,3-.91A2.07,2.07,0,0,0,108.17,63.41Zm-.6-23-3.41-.22a2.76,2.76,0,0,1-2.76-2.91,8.57,8.57,0,0,1,.13-1.62,2.39,2.39,0,0,1,.72-1.16,4.45,4.45,0,0,1,1.84-.78,7.82,7.82,0,0,1,1-.1l1.54-.09,1.55-.09,1,0V28a10.6,10.6,0,0,1,0-1.38,6,6,0,0,1,.23-1.38c.09-.33.17-.64.26-.94a2.6,2.6,0,0,1,.59-.93,2.78,2.78,0,0,1,1.48-.88,5.42,5.42,0,0,1,2.07-.12,3.21,3.21,0,0,1,2.69,1.56,5.05,5.05,0,0,1,.5,1.85c.06.73.09,1.17.09,1.34V47.52H117s0,.19-.07.44a5,5,0,0,1-.26.91,4.89,4.89,0,0,1-.59,1.09,3.19,3.19,0,0,1-1,.94,3.78,3.78,0,0,1-1.84.5,4,4,0,0,1-2.17-.68,2.86,2.86,0,0,1-1.12-1.26,4.43,4.43,0,0,1-.52-1.37,13.11,13.11,0,0,1-.2-1.38V40.39Z"/></g></g></g></g></g></svg>